<?xml version="1.0" encoding="utf-8"?>
<!-- Generator: Adobe Illustrator 20.1.0, SVG Export Plug-In . SVG Version: 6.00 Build 0)  -->
<!DOCTYPE svg PUBLIC "-//W3C//DTD SVG 1.1//EN" "http://www.w3.org/Graphics/SVG/1.1/DTD/svg11.dtd">
<svg version="1.1" id="Layer_1" xmlns="http://www.w3.org/2000/svg" xmlns:xlink="http://www.w3.org/1999/xlink" x="0px" y="0px"
	 viewBox="0 0 527 772" style="enable-background:new 0 0 527 772;" xml:space="preserve">
<style type="text/css">
	.st0{fill:none;stroke:#191F21;stroke-width:4;stroke-miterlimit:10;}
	.st1{fill:none;stroke:#191F21;stroke-width:4;stroke-linecap:round;stroke-miterlimit:10;}
	.st2{fill:none;stroke:#191F21;stroke-width:4;stroke-linejoin:round;}
</style>
<title>background</title>
<g id="Layer_2">
	<g id="Layer_1-2">
		<circle class="st0" cx="172" cy="259.9" r="44.1"/>
		<circle class="st0" cx="172" cy="259.9" r="36"/>
		<polyline class="st1" points="157.1,234.5 172,260.2 189.4,250.1 		"/>
		<path class="st0" d="M100.1,245.4v106.3c0,2.9-2.3,5.2-5.2,5.2c0,0,0,0,0,0h-86c-2.9,0-5.2-2.3-5.2-5.2l0,0v-120
			c0-2.9,2.3-5.2,5.2-5.2h72.2L100.1,245.4z"/>
		<path class="st0" d="M100.3,248.2H85.6c-2.9,0-5.2-2.3-5.2-5.2v-14.3"/>
		<line class="st0" x1="100.1" y1="245.4" x2="81.1" y2="226.4"/>
		<line class="st0" x1="17.3" y1="247.4" x2="60.3" y2="247.4"/>
		<line class="st0" x1="17.3" y1="262" x2="86.3" y2="262"/>
		<line class="st0" x1="17.3" y1="276.5" x2="86.3" y2="276.5"/>
		<line class="st0" x1="17.3" y1="291" x2="86.3" y2="291"/>
		<path class="st2" d="M64.6,49.9l4,14.8L50,59.5c-4.3,1.5-8.7,2.2-13.2,2.2C17.6,61.7,2,48.4,2,31.9S17.6,2.2,36.8,2.2
			s34.8,13.3,34.8,29.8C71.5,38.6,69,45,64.6,49.9z"/>
		<path class="st2" d="M139.3,142.6l-3,10.9l13.7-3.9c3.1,1.1,6.4,1.7,9.8,1.6c14.2,0,25.7-9.8,25.7-22s-11.5-22-25.7-22
			s-25.7,9.8-25.7,22C134.1,134.2,136,138.9,139.3,142.6z"/>
		<path class="st2" d="M483.2,349.2l-1.6,5.8l7.3-2.1c1.7,0.6,3.4,0.9,5.2,0.9c7.6,0,13.7-5.2,13.7-11.7s-6.1-11.7-13.7-11.7
			s-13.7,5.2-13.7,11.7C480.4,344.7,481.4,347.3,483.2,349.2z"/>
		<line class="st0" x1="394.1" y1="90.2" x2="367.6" y2="90.2"/>
		<line class="st0" x1="394.1" y1="98.2" x2="367.6" y2="98.2"/>
		<line class="st0" x1="394.1" y1="167.7" x2="367.6" y2="167.7"/>
		<line class="st0" x1="385.6" y1="167.7" x2="385.6" y2="99"/>
		<line class="st0" x1="376.5" y1="167.7" x2="376.5" y2="99"/>
		<line class="st0" x1="374.4" y1="179.6" x2="388.4" y2="179.6"/>
		<path class="st2" d="M381,190.3l-13.2-22.6V75.2c0-2.2,1.8-4,4-4h18.4c2.2,0,4,1.8,4,4v92.5L381,190.3z"/>
		<line class="st1" x1="47.1" y1="191.3" x2="360.1" y2="191.3"/>
		<path class="st0" d="M115,546.9h84.3c3.4,0,6.1,2.7,6.1,6.1v70.8c0,3.4-2.7,6.1-6.1,6.1H115c-3.4,0-6.1-2.7-6.1-6.1V553
			C108.9,549.7,111.6,546.9,115,546.9z"/>
		<line class="st1" x1="109.3" y1="568.9" x2="205" y2="568.9"/>
		<line class="st1" x1="124.1" y1="537" x2="124.1" y2="554.6"/>
		<line class="st1" x1="125.9" y1="609.9" x2="189.8" y2="585.5"/>
		<line class="st1" x1="136.1" y1="584" x2="136.1" y2="611.9"/>
		<line class="st1" x1="181.2" y1="584" x2="181.2" y2="611.9"/>
		<line class="st1" x1="166.2" y1="584" x2="166.2" y2="611.9"/>
		<line class="st1" x1="151.2" y1="584" x2="151.2" y2="611.9"/>
		<line class="st1" x1="192.2" y1="537" x2="192.2" y2="554.6"/>
		<rect x="381.5" y="530.3" class="st1" width="65.7" height="65.7"/>
		<line class="st1" x1="294.2" y1="308.4" x2="389.1" y2="308.4"/>
		<rect x="299.2" y="273.1" class="st1" width="14.1" height="27.2"/>
		<rect x="322.3" y="234.6" class="st1" width="14.1" height="65.7"/>
		<rect x="345.5" y="245.9" class="st1" width="14.1" height="54.4"/>
		<rect x="368.6" y="281.7" class="st1" width="14.1" height="18.6"/>
		<line class="st1" x1="308.2" y1="151.9" x2="344.9" y2="152.4"/>
		<line class="st1" x1="326.8" y1="133.8" x2="326.3" y2="170.4"/>
		<line class="st1" x1="239.4" y1="252.6" x2="276.1" y2="253.1"/>
		<line class="st1" x1="239.4" y1="268.2" x2="276.1" y2="268.7"/>
		<line class="st1" x1="245.7" y1="454.3" x2="282.4" y2="454.8"/>
		<line class="st1" x1="245.7" y1="469.9" x2="282.4" y2="470.4"/>
		<line class="st1" x1="10.4" y1="153.2" x2="47.1" y2="153.8"/>
		<line class="st1" x1="29" y1="135.2" x2="28.5" y2="171.8"/>
		<line class="st1" x1="316.7" y1="524" x2="353.4" y2="524.5"/>
		<line class="st1" x1="335.3" y1="505.9" x2="334.8" y2="542.6"/>
		<line class="st1" x1="201.2" y1="701" x2="237.9" y2="701.5"/>
		<line class="st1" x1="219.8" y1="682.9" x2="219.2" y2="719.6"/>
		<line class="st1" x1="421.6" y1="138.1" x2="470.3" y2="138.6"/>
		<circle class="st0" cx="183.1" cy="481.8" r="33.5"/>
		<circle class="st0" cx="183.1" cy="481.8" r="23.7"/>
		<line class="st1" x1="209.4" y1="507.3" x2="231.1" y2="529.8"/>
		<line class="st1" x1="268.1" y1="681.2" x2="331.5" y2="681.2"/>
		<line class="st1" x1="299.8" y1="646.5" x2="299.8" y2="681.2"/>
		<path class="st1" d="M299.8,645.7L299.8,645.7c17.5,0,31.7,14.2,31.7,31.7v43c0,17.5-14.2,31.7-31.7,31.7h0
			c-17.5,0-31.7-14.2-31.7-31.7v-43C268.1,659.9,282.3,645.7,299.8,645.7z"/>
		<path class="st0" d="M225.6,364.5h84.3c3.4,0,6.1,2.7,6.1,6.1v49.8c0,3.4-2.7,6.1-6.1,6.1h-84.3c-3.4,0-6.1-2.7-6.1-6.1v-49.8
			C219.5,367.3,222.2,364.5,225.6,364.5z"/>
		<path class="st0" d="M314.5,368.8L272.4,403c-2.8,2.1-6.6,2.1-9.3,0L221,368.8"/>
		<line class="st0" x1="221" y1="426.5" x2="253" y2="398"/>
		<line class="st0" x1="314" y1="426.5" x2="281" y2="397"/>
		<path class="st0" d="M417.2,239.5h84.3c3.4,0,6.1,2.7,6.1,6.1v49.8c0,3.4-2.7,6.1-6.1,6.1h-84.3c-3.4,0-6.1-2.7-6.1-6.1v-49.8
			C411.1,242.2,413.9,239.5,417.2,239.5z"/>
		<path class="st0" d="M506.1,243.7L464,277.9c-2.8,2.1-6.6,2.1-9.3,0l-42.1-34.2"/>
		<line class="st0" x1="412.7" y1="301.5" x2="444.6" y2="273"/>
		<line class="st0" x1="505.6" y1="301.5" x2="472.7" y2="272"/>
		
			<ellipse transform="matrix(0.7071 -0.7071 0.7071 0.7071 -228.7732 221.9271)" class="st2" cx="153.5" cy="387.1" rx="18.3" ry="18.3"/>
		<path class="st2" d="M175.8,409.4L153.1,432l-22.3-22.3c-12.7-12.3-13-32.6-0.7-45.2c12.3-12.7,32.6-13,45.2-0.7s13,32.6,0.7,45.2
			C176,409.1,175.9,409.3,175.8,409.4L175.8,409.4z"/>
		
			<ellipse transform="matrix(0.7071 -0.7071 0.7071 0.7071 -338.0598 350.0105)" class="st2" cx="253.5" cy="583.1" rx="14" ry="14"/>
		<path class="st2" d="M270.5,600.1l-17.3,17.3l-17-17c-9.7-9.4-9.9-24.9-0.5-34.6s24.9-9.9,34.6-0.5c9.7,9.4,9.9,24.9,0.5,34.6
			C270.7,600,270.6,600.1,270.5,600.1L270.5,600.1z"/>
		<line class="st1" x1="459.5" y1="103.9" x2="488.1" y2="104.4"/>
		<line class="st1" x1="459.5" y1="10.6" x2="488.1" y2="11.1"/>
		<path class="st2" d="M451.6,4.1H496c4.6,0,8.3,3.7,8.3,8.3v91.2c0,4.6-3.7,8.3-8.3,8.3h-44.4c-4.6,0-8.3-3.7-8.3-8.3V12.4
			C443.3,7.8,447,4.1,451.6,4.1z"/>
		<rect x="449.4" y="18.1" class="st2" width="48.8" height="79.4"/>
		<line class="st1" x1="4.1" y1="485.7" x2="98.6" y2="486.1"/>
		<path class="st2" d="M98.4,483.7v48.2c-0.1,2.8-2.2,5-5,5.1H8.9c-2.7,0-4.5-2.4-4.5-5.1v-57.1c-0.1-1.4,0.9-2.7,2.3-2.8
			c0.1,0,0.3,0,0.4,0h32.2c1.7,0,4,1,4,2.8v4.2h50C96.1,478.9,98.4,481,98.4,483.7z"/>
		<path class="st2" d="M22.3,649.7H162c4.1,0,7.5,3.3,7.5,7.5v86.7l0,0H14.9l0,0v-86.7C14.9,653,18.2,649.7,22.3,649.7z"/>
		<path class="st2" d="M177.4,756H6.9c-2.6,0-4.8-2.1-4.8-4.8l0,0v-7.4l0,0h180l0,0v7.3C182.2,753.8,180.1,755.9,177.4,756
			C177.4,756,177.4,756,177.4,756z"/>
		<rect x="22.8" y="657.4" class="st2" width="138.6" height="78.4"/>
		<line class="st1" x1="373.5" y1="520.8" x2="510.7" y2="520.8"/>
		<line class="st1" x1="384.5" y1="507.6" x2="384.5" y2="520.8"/>
		<rect x="372.1" y="507.6" class="st2" width="138.6" height="98.6"/>
		<path class="st2" d="M474.8,696.2c0,12.6-6.4,23.5-17.4,29.1v5.9c0,2-1.6,3.7-3.6,3.8h-24.1c-1.9,0-3.3-1.9-3.3-3.8v-5.9
			c-10-5.5-17.5-16.5-17.5-29.1c-0.9-18.2,13.1-33.7,31.3-34.6c18.2-0.9,33.7,13.1,34.6,31.3C474.9,694,474.9,695.1,474.8,696.2
			L474.8,696.2z"/>
		<path class="st2" d="M427,734.9h28.7c2,0,3.6,1.6,3.6,3.6v0.7c0,2-1.6,3.6-3.6,3.6H427c-2,0-3.6-1.6-3.6-3.6v-0.7
			C423.4,736.6,425,734.9,427,734.9z"/>
		<path class="st2" d="M427,743.7h28.7c2,0,3.6,1.6,3.6,3.6v0.7c0,2-1.6,3.6-3.6,3.6H427c-2,0-3.6-1.6-3.6-3.6v-0.7
			C423.4,745.3,425,743.7,427,743.7z"/>
		<line class="st1" x1="437.8" y1="734.9" x2="433.8" y2="705.1"/>
		<line class="st1" x1="445.1" y1="734.9" x2="449.1" y2="705.1"/>
		<line class="st1" x1="425" y1="651.9" x2="419.9" y2="637.9"/>
		<line class="st1" x1="399.9" y1="672.8" x2="386.9" y2="665.3"/>
		<line class="st1" x1="394" y1="704.9" x2="379.3" y2="707.5"/>
		<line class="st1" x1="488.1" y1="705.5" x2="502.8" y2="708.1"/>
		<line class="st1" x1="482.6" y1="673.3" x2="495.5" y2="665.9"/>
		<line class="st1" x1="457.7" y1="652.2" x2="462.8" y2="638.1"/>
		<polygon class="st2" points="479.6,197.6 473.4,217.6 445,163 499.5,191.4 		"/>
		<polygon class="st2" points="41.1,413.6 34.9,433.6 6.5,379 61.1,407.4 		"/>
		<path class="st0" d="M377.4,398.8h56.8c2.3,0,4.1,1.8,4.1,4.1v47.7c0,2.3-1.8,4.1-4.1,4.1h-56.8c-2.3,0-4.1-1.8-4.1-4.1v-47.7
			C373.2,400.6,375.1,398.8,377.4,398.8z"/>
		<path class="st0" d="M395.4,438.8c0,1.6,1.2,2.3,2.6,1.5l20.8-12c1.4-0.8,1.4-2.2,0-3l-20.8-12c-1.4-0.8-2.6-0.1-2.6,1.5V438.8z"
			/>
		<path class="st0" d="M121.8,5.5h56.8c2.3,0,4.1,1.8,4.1,4.1v47.7c0,2.3-1.8,4.1-4.1,4.1h-56.8c-2.3,0-4.1-1.8-4.1-4.1V9.6
			C117.7,7.3,119.5,5.5,121.8,5.5z"/>
		<path class="st0" d="M139.8,45.5c0,1.7,1.2,2.3,2.6,1.5l20.8-12c1.4-0.8,1.4-2.2,0-3l-20.8-12c-1.4-0.8-2.6-0.1-2.6,1.5V45.5z"/>
		<circle class="st2" cx="266.9" cy="68.1" r="43.3"/>
		<circle class="st2" cx="266.9" cy="68.1" r="17.6"/>
		<path class="st2" d="M329,59h-6.2c-1.4-8.8-4.8-17-10.1-24.2l4.4-4.4c1.5-1.6,1.5-4.1,0-5.6l-6.9-6.9c-1.6-1.6-4.1-1.6-5.7,0
			c0,0,0,0,0,0l-4.1,4.4c-7.1-5.2-15.3-8.7-24-10.1V6c0-2.2-2.4-4-4.6-4H262c-2.2,0-3.6,1.8-3.6,4v6.2c-8.9,1.4-17.3,4.8-24.5,10.1
			l-4.5-4.4c-1.6-1.6-4.1-1.6-5.7,0l-7,6.9c-1.6,1.6-1.6,4.1,0,5.7c0,0,0,0,0,0l4.4,4.3C215.9,42,212.4,50.3,211,59h-6.2
			c-2.2,0-3.4,2-3.4,4.2V73c0,2.2,1.1,4,3.4,4h6.2c1.4,8.8,4.8,17.1,10.1,24.3l-4.4,4.4c-1.6,1.6-1.6,4.1,0,5.7c0,0,0,0,0,0l6.9,6.9
			c1.6,1.6,4.1,1.6,5.7,0c0,0,0,0,0,0l4.6-4.4c7.3,5.3,15.7,8.7,24.5,10.1v6.2c-0.2,1.9,1.3,3.6,3.2,3.7c0.1,0,0.3,0,0.4,0h9.8
			c2.2,0,4.6-1.6,4.6-3.8V124c8.7-1.4,16.9-4.8,24-10.1l4.3,4.4c1.5,1.5,4,1.6,5.5,0.1c0,0,0,0,0.1-0.1l6.9-6.9
			c1.6-1.6,1.6-4.1,0-5.7c0,0,0,0,0,0l-4.4-4.4c5.2-7.2,8.7-15.5,10-24.3h6.2c2.2,0,4.4-1.8,4.4-4v-9.8
			C333.2,60.9,331.3,59.1,329,59z"/>
		<circle class="st2" cx="47" cy="596" r="23.3"/>
		<path class="st2" d="M80.4,591H77c-0.7-4.7-2.6-9.1-5.4-12.9l2.4-2.3c0.8-0.8,0.8-2.2,0-3c0,0,0,0,0,0l-3.8-3.8
			c-0.8-0.8-2.2-0.8-3,0l-2,2.4c-3.7-2.8-8.2-4.7-12.8-5.4v-3.3c0-1.2-1.6-1.7-2.8-1.7h-5.3c-1.2,0-1.9,0.5-1.9,1.7v3.3
			c-4.8,0.7-9.3,2.6-13.2,5.4l-2.4-2.4c-0.9-0.8-2.2-0.8-3.1,0l-3.8,3.8c-0.8,0.8-0.8,2.2,0,3l2.4,2.3c-2.8,3.8-4.7,8.3-5.4,13h-3.4
			c-1.2,0-1.2,1.2-1.2,2.4v5.3c0,1.2,0,2.3,1.2,2.3H17c0.7,4.7,2.6,9.2,5.4,13l-2.4,2.3c-0.8,0.8-0.8,2.2,0,3c0,0,0,0,0,0l3.7,3.7
			c0.8,0.8,2.2,0.8,3,0l2.5-2.4c3.9,2.8,8.4,4.7,13.2,5.4v3.3c0,1.2,0.7,1.6,1.9,1.6h5.3c1.2,0,2.8-0.4,2.8-1.6V626
			c4.6-0.7,9-2.6,12.7-5.4l2.2,2.4c0.7,0.8,2,0.9,2.8,0.2c0.1-0.1,0.1-0.1,0.2-0.2l3.6-3.7c0.8-0.8,0.8-2.2,0-3l-2.4-2.3
			c2.8-3.8,4.7-8.3,5.4-13h3.3c1.2-0.1,2.1-1.1,2.1-2.3v-5.3C82.5,592.2,81.6,591.1,80.4,591z"/>
		<path class="st2" d="M406.4,17.1c0,4.6-2.3,8.9-6.1,11.5l-18.8,16.9l-19.3-17.4l-1.6-1.5l0,0c-5.2-5.6-4.8-14.4,0.9-19.6
			s14.4-4.8,19.6,0.9c0.2,0.2,0.4,0.5,0.6,0.7c4.6-6.1,13.3-7.2,19.4-2.6C404.4,8.7,406.5,12.7,406.4,17.1L406.4,17.1z"/>
		<path class="st2" d="M119.8,434c0,4.5-2.2,8.6-5.9,11.1l-18.2,16.3L77,444.7l-1.6-1.4l0,0c-5.1-5.4-4.9-13.9,0.5-18.9
			c5.4-5.1,13.9-4.9,18.9,0.5c0.3,0.3,0.6,0.7,0.9,1.1c4.5-5.9,12.9-6.9,18.8-2.4C117.9,426,119.8,429.9,119.8,434L119.8,434z"/>
		<path class="st1" d="M300.4,638V503.9c-0.1-12.5,9.9-22.8,22.5-22.9c0.1,0,0.1,0,0.2,0h117c12.6,0,23.4-10.4,23.4-23.1v-105
			c0-12.6-10.7-22.9-23.4-22.9H116.4"/>
		<polygon class="st2" points="255.6,538.5 276.7,510.6 264.9,510.6 268.9,489.9 249.1,517.4 261.7,516.8 		"/>
		<polygon class="st2" points="92.8,158.9 113.9,131.1 102.1,131.1 106,110.4 86.3,137.9 98.9,137.3 		"/>
	</g>
</g>
</svg>
